<svg width="200" height="40" viewBox="0 0 200 40" fill="#6C5DD3" xmlns="http://www.w3.org/2000/svg">
<g clip-path="url(#clip0_403_3215)">
<path d="M18.5 0C28.7173 0 37 8.95431 37 20C37 31.0457 28.7173 40 18.5 40C8.28273 40 0 31.0457 0 20C0 8.95431 8.28273 0 18.5 0ZM18.5 8C12.3696 8 7.4 13.3726 7.4 20C7.4 26.6274 12.3696 32 18.5 32C24.6304 32 29.6 26.6274 29.6 20C29.6 13.3726 17.662 28.694 14.8 25.6C11.938 22.506 24.6304 8 18.5 8Z"/>
<path d="M57.3679 29.338C55.4478 29.338 53.7729 28.9694 52.3432 28.2321C50.9136 27.4948 49.8126 26.4682 49.0404 25.1524C48.2682 23.8366 47.8821 22.3394 47.8821 20.6606C47.8821 19.0045 48.2682 17.5186 49.0404 16.2027C49.8126 14.8869 50.9136 13.8547 52.3432 13.1061C53.7729 12.3574 55.4478 11.9831 57.3679 11.9831C59.2881 11.9831 60.9682 12.3574 62.4083 13.1061C63.8484 13.8547 64.9545 14.8869 65.7267 16.2027C66.499 17.5186 66.8851 19.0045 66.8851 20.6606C66.8851 22.3394 66.499 23.8366 65.7267 25.1524C64.9545 26.4682 63.8484 27.4948 62.4083 28.2321C60.9682 28.9694 59.2881 29.338 57.3679 29.338ZM57.3679 24.0635C58.3071 24.0635 59.0585 23.7572 59.622 23.1447C60.1855 22.5322 60.4673 21.7041 60.4673 20.6606C60.4673 19.617 60.1855 18.7946 59.622 18.1935C59.0585 17.5923 58.3071 17.2917 57.3679 17.2917C56.4287 17.2917 55.6826 17.5923 55.1295 18.1935C54.5764 18.7946 54.2999 19.617 54.2999 20.6606C54.2999 21.7041 54.5764 22.5322 55.1295 23.1447C55.6826 23.7572 56.4287 24.0635 57.3679 24.0635ZM68.7635 12.4936H74.8056V14.2631C75.39 13.6052 76.1987 13.0834 77.2318 12.6977C78.265 12.3121 79.3972 12.1192 80.6286 12.1192V17.3938C79.3137 17.3938 78.1449 17.5866 77.1223 17.9723C76.0996 18.3579 75.4004 18.9251 75.0247 19.6737V28.8276H68.7635V12.4936ZM89.0813 29.338C87.4951 29.338 86.0968 28.9807 84.8863 28.2661C83.6757 27.5515 82.7418 26.542 82.0843 25.2375C81.4269 23.933 81.0982 22.4188 81.0982 20.6946C81.0982 18.9931 81.4269 17.4789 82.0843 16.1517C82.7418 14.8246 83.6757 13.798 84.8863 13.0721C86.0968 12.3461 87.4951 11.9831 89.0813 11.9831C90.0414 11.9831 90.944 12.1363 91.7893 12.4425C92.6346 12.7488 93.339 13.1628 93.9025 13.6846V3.67999H100.164V28.8276H94.1216V27.3303C93.4955 27.9882 92.7494 28.4873 91.8832 28.8276C91.0171 29.1679 90.0831 29.338 89.0813 29.338ZM90.7719 24.0635C91.4815 24.0635 92.1128 23.882 92.6659 23.519C93.219 23.1561 93.6312 22.657 93.9025 22.0217V19.3334C93.6312 18.6982 93.219 18.1991 92.6659 17.8362C92.1128 17.4732 91.4815 17.2917 90.7719 17.2917C89.7909 17.2917 89.0135 17.5923 88.4395 18.1935C87.8656 18.7946 87.5786 19.6284 87.5786 20.6946C87.5786 21.7609 87.8656 22.5889 88.4395 23.1787C89.0135 23.7686 89.7909 24.0635 90.7719 24.0635ZM111.653 29.338C108.627 29.338 106.269 28.5894 104.578 27.0921C102.887 25.5948 102.042 23.4737 102.042 20.7286C102.042 18.029 102.804 15.8965 104.328 14.3311C105.851 12.7658 108.043 11.9831 110.902 11.9831C112.739 11.9831 114.309 12.3518 115.614 13.0891C116.918 13.8264 117.904 14.8416 118.572 16.1347C119.24 17.4278 119.574 18.8797 119.574 20.4904V22.7023H107.99C108.491 24.1543 110.004 24.8802 112.53 24.8802C113.532 24.8802 114.56 24.7951 115.614 24.625C116.667 24.4548 117.56 24.211 118.29 23.8934V28.147C117.497 28.51 116.506 28.7992 115.316 29.0148C114.126 29.2303 112.906 29.338 111.653 29.338ZM113.657 18.7549C113.552 18.029 113.26 17.4675 112.78 17.0705C112.3 16.6735 111.643 16.475 110.808 16.475C109.973 16.475 109.321 16.6792 108.851 17.0875C108.382 17.4959 108.095 18.0517 107.99 18.7549H113.657ZM121.452 12.4936H127.494V14.2631C128.079 13.6052 128.887 13.0834 129.921 12.6977C130.954 12.3121 132.086 12.1192 133.317 12.1192V17.3938C132.002 17.3938 130.834 17.5866 129.811 17.9723C128.788 18.3579 128.089 18.9251 127.713 19.6737V28.8276H121.452V12.4936ZM135.196 3.67999H139.14V28.8276H135.196V3.67999ZM151.068 29.338C149.315 29.338 147.776 28.9921 146.45 28.3001C145.125 27.6082 144.097 26.61 143.367 25.3056C142.636 24.0011 142.271 22.4528 142.271 20.6606C142.271 18.9137 142.631 17.3881 143.351 16.0836C144.071 14.7792 145.099 13.7697 146.435 13.055C147.77 12.3404 149.315 11.9831 151.068 11.9831C152.821 11.9831 154.36 12.3404 155.686 13.055C157.011 13.7697 158.039 14.7792 158.769 16.0836C159.5 17.3881 159.865 18.9137 159.865 20.6606C159.865 22.4528 159.5 24.0011 158.769 25.3056C158.039 26.61 157.011 27.6082 155.686 28.3001C154.36 28.9921 152.821 29.338 151.068 29.338ZM151.068 25.9691C152.508 25.9691 153.656 25.4757 154.512 24.4889C155.367 23.502 155.795 22.2259 155.795 20.6606C155.795 19.0045 155.373 17.7057 154.527 16.7642C153.682 15.8228 152.529 15.352 151.068 15.352C149.607 15.352 148.454 15.8228 147.609 16.7642C146.763 17.7057 146.341 19.0045 146.341 20.6606C146.341 22.2259 146.769 23.502 147.624 24.4889C148.48 25.4757 149.628 25.9691 151.068 25.9691ZM170.384 29.338C168.631 29.338 167.092 28.9921 165.766 28.3001C164.441 27.6082 163.413 26.61 162.683 25.3056C161.952 24.0011 161.587 22.4528 161.587 20.6606C161.587 18.9137 161.947 17.3881 162.667 16.0836C163.387 14.7792 164.415 13.7697 165.751 13.055C167.086 12.3404 168.631 11.9831 170.384 11.9831C172.137 11.9831 173.676 12.3404 175.002 13.055C176.327 13.7697 177.355 14.7792 178.085 16.0836C178.816 17.3881 179.181 18.9137 179.181 20.6606C179.181 22.4528 178.816 24.0011 178.085 25.3056C177.355 26.61 176.327 27.6082 175.002 28.3001C173.676 28.9921 172.137 29.338 170.384 29.338ZM170.384 25.9691C171.824 25.9691 172.972 25.4757 173.828 24.4889C174.683 23.502 175.111 22.2259 175.111 20.6606C175.111 19.0045 174.689 17.7057 173.843 16.7642C172.998 15.8228 171.845 15.352 170.384 15.352C168.923 15.352 167.77 15.8228 166.925 16.7642C166.079 17.7057 165.657 19.0045 165.657 20.6606C165.657 22.2259 166.085 23.502 166.94 24.4889C167.796 25.4757 168.944 25.9691 170.384 25.9691ZM182.312 12.4936H186.131V14.4673C186.945 13.6279 187.832 13.004 188.792 12.5957C189.752 12.1873 190.848 11.9831 192.079 11.9831C193.603 11.9831 194.965 12.3404 196.165 13.055C197.365 13.7697 198.304 14.7792 198.982 16.0836C199.661 17.3881 200 18.9024 200 20.6265C200 22.328 199.661 23.8366 198.982 25.1524C198.304 26.4682 197.365 27.4948 196.165 28.2321C194.965 28.9694 193.603 29.338 192.079 29.338C190.932 29.338 189.851 29.1622 188.839 28.8106C187.827 28.4589 186.966 27.9315 186.256 27.2282V36.28H182.312V12.4936ZM191.109 25.9691C192.528 25.9691 193.697 25.47 194.615 24.4718C195.534 23.4737 195.993 22.1919 195.993 20.6265C195.993 19.0612 195.534 17.7908 194.615 16.8153C193.697 15.8398 192.528 15.352 191.109 15.352C189.982 15.352 188.98 15.681 188.104 16.3389C187.227 16.9968 186.611 17.8815 186.256 18.9931V22.294C186.59 23.4056 187.201 24.296 188.088 24.9653C188.975 25.6345 189.982 25.9691 191.109 25.9691Z"/>
</g>
<defs>
<clipPath id="clip0_403_3215">
<rect width="200" height="40" fill="white"/>
</clipPath>
</defs>
</svg>
