<svg width="32" height="32" viewBox="0 0 32 32" fill="none" xmlns="http://www.w3.org/2000/svg">
<path d="M15.9275 0C24.7241 0 31.8551 7.131 31.8551 15.9275C31.8551 24.7241 24.7241 31.8551 15.9275 31.8551C7.131 31.8551 0 24.7241 0 15.9275C0 7.131 7.131 0 15.9275 0ZM15.9275 6.37101C10.6496 6.37101 6.37101 10.6496 6.37101 15.9275C6.37101 21.2055 10.6496 25.484 15.9275 25.484C21.2055 25.484 25.484 21.2055 25.484 15.9275C25.484 10.6496 15.206 22.8513 12.742 20.3872C10.278 17.9232 21.2055 6.37101 15.9275 6.37101Z" fill="#6C5DD3"/>
</svg>
