<svg width="24" height="24" viewBox="0 0 24 24" fill="none" xmlns="http://www.w3.org/2000/svg">
<path d="M2 12H2.75H2ZM2 18.9231H1.25H2ZM18.9231 22V21.25V22ZM5.07692 22V22.75V22ZM22 12H21.25H22ZM22 18.9231H22.75H22ZM18.9231 8.9231L18.9231 9.6731L18.9231 8.9231ZM5.07693 8.92308L5.07693 9.67308H5.07693L5.07693 8.92308ZM11.25 16.6154C11.25 17.0296 11.5858 17.3654 12 17.3654C12.4142 17.3654 12.75 17.0296 12.75 16.6154H11.25ZM12.75 13.5385C12.75 13.1242 12.4142 12.7885 12 12.7885C11.5858 12.7885 11.25 13.1242 11.25 13.5385H12.75ZM1.25 12L1.25 18.9231H2.75L2.75 12H1.25ZM18.9231 21.25H5.07692V22.75H18.9231V21.25ZM21.25 12V18.9231H22.75V12H21.25ZM22.75 12C22.75 9.88647 21.0366 8.1731 18.9231 8.1731L18.9231 9.6731C20.2082 9.6731 21.25 10.7149 21.25 12H22.75ZM2.75 12C2.75 10.7149 3.7918 9.67308 5.07693 9.67308L5.07693 8.17308C2.96338 8.17308 1.25 9.88645 1.25 12H2.75ZM1.25 18.9231C1.25 21.0366 2.96337 22.75 5.07692 22.75V21.25C3.7918 21.25 2.75 20.2082 2.75 18.9231H1.25ZM18.9231 22.75C21.0366 22.75 22.75 21.0366 22.75 18.9231H21.25C21.25 20.2082 20.2082 21.25 18.9231 21.25V22.75ZM6.59616 8.15385C6.59616 5.16938 9.01554 2.75 12 2.75V1.25C8.18711 1.25 5.09616 4.34096 5.09616 8.15385H6.59616ZM12 2.75C14.9845 2.75 17.4038 5.16938 17.4038 8.15385H18.9038C18.9038 4.34096 15.8129 1.25 12 1.25V2.75ZM12.75 16.6154V13.5385H11.25V16.6154H12.75ZM18.9231 8.1731L18.1538 8.1731L18.1538 9.6731L18.9231 9.6731L18.9231 8.1731ZM17.4038 8.15385V8.9231H18.9038V8.15385H17.4038ZM18.1538 8.1731L5.84616 8.17308L5.84616 9.67308L18.1538 9.6731L18.1538 8.1731ZM5.84616 8.17308L5.07693 8.17308L5.07693 9.67308L5.84616 9.67308L5.84616 8.17308ZM5.09616 8.15385V8.92308H6.59616V8.15385H5.09616Z" fill="#D3D2D8"/>
</svg>
