<svg width="24" height="24" viewBox="0 0 24 24" fill="none" xmlns="http://www.w3.org/2000/svg">
<path d="M21.4632 10.0552C20.1148 7.79455 17.0919 4 11.9997 4C6.90842 4 3.88446 7.79351 2.53603 10.0552C1.82132 11.2547 1.82132 12.7442 2.53603 13.9447C3.88548 16.2054 6.90842 20 11.9997 20C17.0919 20 20.1148 16.2064 21.4632 13.9447C22.1789 12.7453 22.1789 11.2558 21.4632 10.0552ZM20.1445 13.1489C18.9632 15.1298 16.3341 18.4527 11.9997 18.4527C7.66518 18.4527 5.03601 15.1298 3.85473 13.1489C3.43328 12.4407 3.43328 11.5602 3.85473 10.8532C5.03601 8.87223 7.6662 5.5494 11.9997 5.5494C16.3351 5.5494 18.9642 8.87223 20.1445 10.8532C20.567 11.5602 20.567 12.4407 20.1445 13.1489ZM11.9997 7.6139C9.59708 7.6139 7.64159 9.58246 7.64159 12.001C7.64159 14.4196 9.59708 16.3881 11.9997 16.3881C14.4022 16.3881 16.3576 14.4196 16.3576 12.001C16.3576 9.58246 14.4022 7.6139 11.9997 7.6139ZM11.9997 14.8397C10.4441 14.8397 9.17975 13.5669 9.17975 12.001C9.17975 10.4351 10.4441 9.16225 11.9997 9.16225C13.5552 9.16225 14.8195 10.4351 14.8195 12.001C14.8195 13.5669 13.5552 14.8397 11.9997 14.8397Z" fill="#D3D2D8"/>
</svg>
